<?xml version="1.0" standalone="no"?>
<!DOCTYPE svg PUBLIC "-//W3C//DTD SVG 20010904//EN"
 "http://www.w3.org/TR/2001/REC-SVG-20010904/DTD/svg10.dtd">
<svg version="1.0" xmlns="http://www.w3.org/2000/svg"
 width="512.000000pt" height="512.000000pt" viewBox="0 0 512.000000 512.000000"
 preserveAspectRatio="xMidYMid meet">
<metadata>
Created by potrace 1.11, written by Peter Selinger 2001-2013
</metadata>
<g transform="translate(0.000000,512.000000) scale(0.100000,-0.100000)"
fill="#000000" stroke="none">
<path d="M185 5061 c-42 -11 -68 -29 -93 -66 -48 -70 -46 -142 6 -198 42 -44
-7 -27 577 -208 94 -29 173 -57 176 -62 5 -7 142 -543 154 -602 1 -5 7 -30 14
-55 7 -25 14 -52 16 -60 2 -8 11 -44 20 -80 9 -36 18 -72 20 -80 2 -8 24 -96
50 -195 25 -99 73 -286 106 -415 33 -129 82 -320 109 -425 27 -104 74 -289
105 -410 31 -121 62 -229 69 -240 29 -42 57 -64 88 -70 18 -3 636 -6 1373 -8
l1340 -2 47 -28 c63 -36 100 -100 104 -174 4 -89 -36 -156 -118 -197 l-49 -25
-1258 0 c-734 0 -1268 -4 -1282 -10 -62 -23 -107 -93 -103 -158 3 -53 26 -92
72 -123 l36 -25 1258 -3 c1390 -2 1339 -5 1468 60 128 65 249 219 276 353 31
150 -2 313 -85 422 l-40 52 20 93 c11 51 22 101 25 110 3 10 8 30 10 45 3 16
19 87 35 158 40 175 80 355 85 385 3 13 14 63 25 110 12 47 23 96 25 110 3 14
12 54 20 90 9 36 17 74 20 85 2 11 15 72 30 135 14 63 28 124 30 134 2 11 26
122 54 247 48 215 50 230 36 261 -8 18 -23 42 -33 54 -45 51 63 48 -1895 49
-1005 0 -1830 4 -1834 8 -7 7 -35 100 -48 162 -5 23 -66 256 -102 390 -38 142
-33 139 -395 252 -285 89 -533 164 -534 162 0 -1 -13 -4 -30 -8z m3435 -1679
c14 -11 35 -33 47 -51 22 -32 22 -39 23 -372 1 -368 1 -367 -57 -420 -79 -74
-191 -48 -250 58 -9 15 -12 114 -13 350 -1 363 1 377 60 427 18 14 44 29 58
32 15 3 32 7 37 8 17 5 69 -13 95 -32z m-980 6 c18 -13 43 -36 54 -51 20 -28
21 -39 21 -382 0 -341 -1 -354 -21 -381 -51 -68 -126 -93 -192 -64 -47 21 -89
70 -97 113 -3 18 -5 178 -3 357 3 324 3 325 27 358 52 73 145 95 211 50z"/>
<path d="M2410 1009 c-256 -27 -440 -250 -423 -514 21 -340 398 -545 705 -383
155 82 250 243 250 423 -1 287 -244 504 -532 474z"/>
<path d="M3991 1008 c-197 -29 -358 -185 -396 -384 -75 -391 323 -694 682
-519 190 93 295 299 258 509 -31 178 -158 324 -330 378 -50 16 -157 24 -214
16z"/>
</g>
</svg>
